# AST/ASF file generated using VICON BodyLanguage
# -----------------------------------------------
:version 1.10
:name VICON
:units
  mass 1.0
  length 0.45
  angle deg
:documentation
   .ast/.asf automatically generated from VICON data using
   VICON BodyBuilder and BodyLanguage model FoxedUp or BRILLIANT.MOD
:root
   order TX TY TZ RX RY RZ
   axis XYZ
   position 0 0 0  
   orientation 0 0 0 
:bonedata
  begin
     id 1 
     name lhipjoint
     direction 0.756833 -0.6125 0.228138 
     length 2.53827 
     axis 0 0 0  XYZ
  end
  begin
     id 2 
     name lfemur
     direction 0.34202 -0.939693 0  
     length 6.51821  
     axis 0 0 20  XYZ
    dof rx ry rz
    limits (-160.0 20.0)
           (-70.0 70.0)
           (-60.0 70.0)
  end
  begin
     id 3 
     name ltibia
     direction 0.34202 -0.939693 0   
     length 6.99902   
     axis 0 0 20   XYZ
    dof rx
    limits (-10.0 170.0)
  end
  begin
     id 4 
     name lfoot
     direction 0.0951515 -0.261427 0.960522   
     length 1.92102   
     axis -90 7.62852e-016 20   XYZ
    dof rx rz
    limits (-45.0 90.0)
           (-70.0 20.0)
  end
  begin
     id 5 
     name ltoes
     direction 1.53539e-011 -4.21781e-011 1   
     length 0.964376   
     axis -90 7.62852e-016 20   XYZ
    dof rx
    limits (-90.0 20.0)
  end
  begin
     id 6 
     name rhipjoint
     direction -0.752153 -0.617542 0.230017   
     length 2.51754  
     axis 0 0 0  XYZ 
  end
  begin
     id 7 
     name rfemur
     direction -0.34202 -0.939693 0   
     length 6.82377   
     axis 0 0 -20   XYZ
    dof rx ry rz
    limits (-160.0 20.0)
           (-70.0 70.0)
           (-70.0 60.0)
  end
  begin
     id 8 
     name rtibia
     direction -0.34202 -0.939693 0   
     length 6.98689   
     axis 0 0 -20   XYZ
    dof rx
    limits (-10.0 170.0)
 end
 begin
     id 9 
     name rfoot
     direction -0.0900426 -0.24739 0.964723   
     length 2.03215  
     axis -90 -7.62852e-016 -20   XYZ
    dof rx rz
    limits (-45.0 90.0)
           (-20.0 70.0)
  end
  begin
     id 10 
     name rtoes
     direction -1.53466e-011 -4.22206e-011 1   
     length 1.0197   
     axis -90 -7.62852e-016 -20   XYZ
    dof rx
    limits (-90.0 20.0)
  end
  begin
     id 11 
     name lowerback
     direction 0.0184183 0.995705 -0.0907278   
     length 2.019   
     axis 0 0 0   XYZ
    dof rx ry rz
    limits (-20.0 45.0)
           (-30.0 30.0)
           (-30.0 30.0)
  end
  begin
     id 12 
     name upperback
     direction 0.00281055 0.998777 0.0493607   
     length 1.99623   
     axis 0 0 0   XYZ
    dof rx ry rz
    limits (-20.0 45.0)
           (-30.0 30.0)
           (-30.0 30.0)
  end
  begin
     id 13 
     name thorax
     direction -0.00665507 0.995706 0.092331   
     length 2.02811   
     axis 0 0 0   XYZ
    dof rx ry rz
    limits (-20.0 45.0)
           (-30.0 30.0)
           (-30.0 30.0)
  end
  begin
     id 14 
     name lowerneck
     direction -0.0960965 0.994358 0.0449225   
     length 1.71265   
     axis 0 0 0   XYZ
    dof rx ry rz
    limits (-20.0 45.0)
           (-30.0 30.0)
           (-30.0 30.0)
  end
  begin
     id 15 
     name upperneck
     direction 0.13642 0.985357 -0.102278   
     length 1.73016   
     axis 0 0 0   XYZ
    dof rx ry rz
    limits (-20.0 45.0)
           (-30.0 30.0)
           (-30.0 30.0)
  end
  begin
     id 16
     name head
     direction 0.0556079 0.997632 -0.040479  
     length 1.74275  
     axis 0 0 0   XYZ
    dof rx ry rz
    limits (-20.0 45.0)
           (-30.0 30.0)
           (-30.0 30.0)
  end
  begin
     id 17 
     name lclavicle
     direction 0.90877 0.417247 -0.00652364  
     length 3.25514  
     axis 0 0 0   XYZ
    dof ry rz
    limits (-20.0 10.0)
           (0.0 20.0)
  end
  begin
     id 18 
     name lhumerus
     direction 1 -4.48949e-011 8.31417e-028   
     length 4.84834   
     axis 180 -30 -90   XYZ
    dof rx ry rz
    limits (-60.0 90.0)
           (-90.0 90.0)
           (-90.0 90.0)
  end
  begin
     id 19
     name lradius
     direction 1 -4.48984e-011 3.45616e-027   
     length 2.99713   
     axis 180 -30 -90   XYZ
    dof rx
    limits (-10.0 170.0)
  end
  begin
     id 20
     name lwrist
     direction 1 -4.4891e-011 4.0479e-027   
     length 1.49857   
     axis -1.61768e-015 90 90   XYZ
    dof ry
    limits (-180.0 0.0)
 end
  begin
     id 21 
     name lhand
     direction 1 -4.49025e-011 8.0958e-027   
     length 0.693987   
     axis -5.16581e-015 90 90   XYZ
    dof rx rz
    limits (-90.0 90.0)
           (-45.0 45.0)
  end
  begin
     id 22 
     name lfingers
     direction 1 -4.4888e-011 1.61916e-026   
     length 0.55951   
     axis -1.03316e-014 90 90   XYZ
    dof rx
    limits (0.0 90.0)
  end
  begin
     id 23
     name lthumb
     direction 0.707107 -6.3493e-011 0.707107   
     length 0.803348   
     axis -90 45 2.85299e-015   XYZ
    dof rx rz
    limits (-45.0 45.0)
           (-45.0 45.0)
  end
  begin
     id 24 
     name rclavicle
     direction -0.906655 0.41906 0.0486307   
     length 3.3311  
     axis 0 0 0   XYZ 
    dof ry rz
    limits (-10.0 20.0)
           (-20.0 0.0)
  end
  begin
     id 25 
     name rhumerus
     direction -1 -4.48959e-011 6.37764e-018  
     length 4.93457   
     axis 180 30 90   XYZ
    dof rx ry rz
    limits (-90.0 60.0)
           (-90.0 90.0)
           (-90.0 90.0)
  end
  begin
     id 26 
     name rradius
     direction -1 -4.48957e-011 2.20847e-027   
     length 3.3443   
     axis 180 30 90   XYZ
    dof rx
    limits (-10.0 170.0)
  end
  begin
     id 27 
     name rwrist
     direction -1 -4.49008e-011 4.0479e-027   
     length 1.67215   
     axis -1.61768e-015 -90 -90   XYZ
    dof ry
    limits (-180.0 0.0)
  end
  begin
     id 28
     name rhand
     direction -1 -4.49013e-011 8.0958e-027   
     length 0.677363   
     axis -5.16581e-015 -90 -90   XYZ
    dof rx rz
    limits (-90.0 90.0)
           (-45.0 45.0)
  end
  begin
     id 29
     name rfingers
     direction -1 -4.48832e-011 1.61916e-026   
     length 0.546107   
     axis -1.03316e-014 -90 -90   XYZ
    dof rx
    limits (0.0 90.0)
  end
  begin
     id 30
     name rthumb
     direction -0.707107 -6.34895e-011 0.707107   
     length 0.784104   
     axis -90 -45 -2.85299e-015   XYZ
    dof rx rz
    limits (-45.0 45.0)
           (-45.0 45.0)
  end
:hierarchy
  begin
    root lhipjoint rhipjoint lowerback
    lhipjoint lfemur
    lfemur ltibia
    ltibia lfoot
    lfoot ltoes
    rhipjoint rfemur
    rfemur rtibia
    rtibia rfoot
    rfoot rtoes
    lowerback upperback
    upperback thorax
    thorax lowerneck lclavicle rclavicle
    lowerneck upperneck
    upperneck head
    lclavicle lhumerus
    lhumerus lradius
    lradius lwrist
    lwrist lhand lthumb
    lhand lfingers
    rclavicle rhumerus
    rhumerus rradius
    rradius rwrist
    rwrist rhand rthumb
    rhand rfingers
  end

#!OML:ASF H:\Terrain\Patient Classification 1\junglegym\FridayTest\junglegym.ASF
:FULLY-SPECIFIED
:DEGREES
237
root -3.62469 15.7619 0.727249 113.451 -84.7979 -107.493
lowerback 3.2617 -0.379067 6.28141
upperback -6.08037 -0.0377202 2.34333
thorax -8.25225 -0.394596 -1.02637
lowerneck 5.22336 2.50128 -10.1068
upperneck 33.0003 -0.607888 8.41093
head 9.55857 -1.53588 4.62908
rclavicle -2.6339e-015 1.15295e-014
rhumerus 97.9113 -23.9047 -57.3316
rradius 36.9859
rwrist 2.47168
rhand -9.18457 28.7891
rfingers 7.12502
rthumb 16.7688 -0.50679
lclavicle -2.6339e-015 1.15295e-014
lhumerus 97.0427 23.2147 60.4368
lradius 41.9669
lwrist -28.7886
lhand -4.74597 20.9345
lfingers 7.12502
lthumb 21.0375 49.8134
rfemur -21.3515 -4.60728 23.0327
rtibia 86.8498
rfoot 2.57316 1.93266
rtoes 17.9353
lfemur -3.06308 15.8776 -17.2379
ltibia 80.0073
lfoot 3.06616 3.16594
ltoes -34.3651
238
root -3.41735 15.7989 0.72108 113.855 -85.7549 -107.716
lowerback 3.52957 -0.548453 5.28911
upperback -5.90594 -0.317267 2.21781
thorax -8.22018 -0.463149 -0.579368
lowerneck 5.75041 2.66513 -10.1532
upperneck 32.5862 -0.347591 8.23023
head 9.28505 -1.43014 4.56684
rclavicle 2.85753e-015 4.37326e-015
rhumerus 98.0902 -23.4002 -58.0771
rradius 37.4123
rwrist 2.90514
rhand -8.85146 29.5354
rfingers 7.12502
rthumb 17.0894 0.267025
lclavicle 2.85753e-015 4.37326e-015
lhumerus 97.2656 23.3578 60.9878
lradius 41.8453
lwrist -28.8801
lhand -5.04873 20.0313
lfingers 7.12502
lthumb 20.7466 48.9422
rfemur -19.4347 -5.22599 21.5398
rtibia 86.3187
rfoot 2.52801 3.0658
rtoes 9.61724
lfemur -1.18169 15.5164 -18.1005
ltibia 78.6519
lfoot 3.77177 3.43409
ltoes -32.8952
239
root -3.17035 15.8436 0.707695 112.401 -85.7407 -105.164
lowerback 3.40163 -0.603026 5.27961
upperback -6.10847 -0.395389 2.31071
thorax -8.36892 -0.507638 -0.464245
lowerneck 6.24187 2.80281 -10.6005
upperneck 32.3102 -0.222561 8.3649
head 9.08131 -1.4153 4.68785
rclavicle 8.39865e-015 -3.57812e-015
rhumerus 98.0747 -22.9419 -58.5219
rradius 37.9221
rwrist 2.77907
rhand -9.13171 29.5752
rfingers 7.12502
rthumb 16.8197 0.283662
lclavicle 8.39865e-015 -3.57812e-015
lhumerus 97.2056 23.488 61.4941
lradius 42.0454
lwrist -28.9068
lhand -4.58922 19.2408
lfingers 7.12502
lthumb 21.1881 48.1029
rfemur -19.1471 -5.40166 21.5379
rtibia 85.9211
rfoot 2.68466 3.24324
rtoes -0.442437
lfemur -1.02915 15.3535 -18.1219
ltibia 77.8516
lfoot 4.62873 3.66206
ltoes -37.2015
240
root -2.89974 15.8999 0.684491 108.867 -84.8789 -99.9412
lowerback 3.18252 -0.575703 5.94579
upperback -6.52904 -0.30812 2.71922
thorax -8.70664 -0.519441 -0.402246
lowerneck 4.92713 2.52269 -11.0006
upperneck 33.8498 -0.63811 8.3791
head 9.94652 -1.6967 4.80589
rclavicle 1.73937e-016 -2.38542e-015
rhumerus 97.6954 -22.9429 -58.0054
rradius 38.7814
rwrist 2.10335
rhand -9.62874 28.9788
rfingers 7.12502
rthumb 16.3411 -0.352728
lclavicle 1.73937e-016 -2.38542e-015
lhumerus 96.3391 23.8594 60.5712
lradius 42.6873
lwrist -29.3958
lhand -5.17816 21.6172
lfingers 7.12502
lthumb 20.6222 50.5417
rfemur -19.8984 -5.38128 22.8262
rtibia 85.5525
rfoot 3.31887 2.71813
rtoes -2.98408
lfemur -2.11607 15.1825 -17.2504
ltibia 77.6053
lfoot 5.40754 3.97328
ltoes -34.3023
241
root -2.65615 15.9528 0.664352 107.143 -84.227 -97.1484
lowerback 3.35725 -0.568176 6.27343
upperback -6.72021 -0.238218 3.08969
thorax -9.02283 -0.510148 -0.188683
lowerneck 4.74537 2.75187 -11.7451
upperneck 33.7775 -0.289789 8.63286
head 9.90787 -1.58476 5.05345
rclavicle 3.2054e-015 -1.90833e-014
rhumerus 97.4619 -23.1428 -57.588
rradius 39.3955
rwrist 1.94959
rhand -9.34238 29.3365
rfingers 7.12502
rthumb 16.6168 0.0278875
lclavicle 3.2054e-015 -1.90833e-014
lhumerus 96.2558 23.9926 60.62
lradius 42.5788
lwrist -29.5993
lhand -5.93206 21.883
lfingers 7.12502
lthumb 19.8977 50.8844
rfemur -19.6474 -5.3795 23.6558
rtibia 85.075
rfoot 3.57877 2.05998
rtoes 0.686232
lfemur -2.22312 15.1208 -16.3889
ltibia 77.2905
lfoot 5.54568 4.71595
ltoes -29.3716
242
root -2.42997 16.004 0.650741 106.908 -84.1994 -96.121
lowerback 3.46165 -0.584129 6.16463
upperback -6.83343 -0.254176 3.11169
thorax -9.20886 -0.516539 -0.097567
lowerneck 5.11183 2.84239 -11.8867
upperneck 33.605 -0.216615 8.68944
head 9.76598 -1.5652 5.09298
rclavicle 4.9075e-015 -7.15625e-015
rhumerus 97.3877 -23.2842 -57.7442
rradius 39.5078
rwrist 2.10232
rhand -9.36824 30.0919
rfingers 7.12502
rthumb 16.5919 0.7812
lclavicle 4.9075e-015 -7.15625e-015
lhumerus 95.6279 24.2004 60.1068
lradius 43.3227
lwrist -28.8474
lhand -6.22167 22.0137
lfingers 7.12502
lthumb 19.6192 51.0438
rfemur -18.8801 -5.31601 23.6499
rtibia 84.6098
rfoot 3.58979 1.20251
rtoes 10.1192
lfemur -1.7871 14.9541 -16.2455
ltibia 76.6725
lfoot 5.36252 5.76464
ltoes -25.1544
243
root -2.20431 16.0721 0.650085 105.344 -84.4693 -93.4732
lowerback 3.11258 -0.518202 6.32638
upperback -6.92736 -0.203143 2.76086
thorax -9.1059 -0.516211 -0.569374
lowerneck 5.92753 2.7933 -11.5386
upperneck 33.0145 -0.378186 8.75657
head 9.41277 -1.58515 5.01842
rclavicle 5.49143e-015 -1.66979e-014
rhumerus 97.3822 -23.4988 -58.3128
rradius 39.432
rwrist 2.99999
rhand -9.50085 31.0518
rfingers 7.12502
rthumb 16.4643 1.73045
lclavicle 5.49143e-015 -1.66979e-014
lhumerus 95.8219 23.8726 60.1171
lradius 43.6301
lwrist -28.5457
lhand -7.57027 24.9872
lfingers 7.12502
lthumb 18.3223 54.1443
rfemur -18.3875 -5.1603 23.4693
rtibia 84.0701
rfoot 3.46597 0.385253
rtoes 16.0308
lfemur -1.69583 14.494 -16.6693
ltibia 75.7019
lfoot 5.97004 6.40267
ltoes -21.5825
244
root -1.97789 16.1243 0.646768 103.581 -85.1447 -90.7862
lowerback 2.65177 -0.50409 5.98733
upperback -6.91655 -0.265788 2.45463
thorax -8.81774 -0.526918 -0.707404
lowerneck 6.09443 2.77859 -11.514
upperneck 32.8664 -0.418027 8.81521
head 9.33101 -1.58837 5.02788
rclavicle 8.29615e-015 -6.75868e-015
rhumerus 97.3752 -23.5274 -58.5433
rradius 39.6081
rwrist 3.78621
rhand -9.11455 31.6552
rfingers 7.12502
rthumb 16.8362 2.36508
lclavicle 8.29615e-015 -6.75868e-015
lhumerus 96.1156 23.9784 59.982
lradius 43.563
lwrist -28.0689
lhand -5.95748 21.3438
lfingers 7.12502
lthumb 19.8732 50.3477
rfemur -17.7993 -5.13248 22.7834
rtibia 83.6824
rfoot 2.98966 -0.0964059
rtoes 20.4838
lfemur -1.28749 14.1318 -17.5305
ltibia 74.625
lfoot 6.70765 6.69992
ltoes -30.4721
245
root -1.79715 16.2065 0.636242 106.088 -86.4854 -92.7072
lowerback 2.45582 -0.564858 4.51673
upperback -6.84538 -0.471995 2.19371
thorax -8.60541 -0.527385 -0.151242
lowerneck 5.90705 2.90233 -11.5443
upperneck 33.3975 -0.266558 8.71462
head 9.54921 -1.55258 5.02324
rclavicle -1.21973e-014 -5.1684e-015
rhumerus 97.1223 -24.0636 -57.6272
rradius 39.9249
rwrist 2.86771
rhand -8.31043 32.0328
rfingers 7.12502
rthumb 17.6101 2.81033
lclavicle -1.21973e-014 -5.1684e-015
lhumerus 95.8884 24.6925 59.2796
lradius 43.5463
lwrist -27.4149
lhand -6.54786 21.8358
lfingers 7.12502
lthumb 19.3056 50.8975
rfemur -16.6271 -5.54324 20.9055
rtibia 83.1795
rfoot 2.36759 0.118726
rtoes 24.659
lfemur -0.215985 13.777 -19.1599
ltibia 73.201
lfoot 7.03314 7.14891
ltoes -32.4317
246
root -1.58428 16.2698 0.606205 112.92 -86.5023 -98.5318
lowerback 2.10226 -0.374949 4.0028
upperback -6.86868 -0.271677 2.24412
thorax -8.40614 -0.39216 0.163995
lowerneck 5.46099 2.92576 -11.5064
upperneck 34.1765 -0.273681 8.70316
head 9.92865 -1.57934 5.04477
rclavicle -3.0501e-015 -3.97569e-016
rhumerus 96.8651 -24.8796 -56.7249
rradius 40.0728
rwrist 2.02754
rhand -8.21633 32.7442
rfingers 7.12502
rthumb 17.7007 3.52981
lclavicle -3.0501e-015 -3.97569e-016
lhumerus 95.3589 25.2784 58.4509
lradius 44.06
lwrist -26.9948
lhand -6.62488 22.889
lfingers 7.12502
lthumb 19.2316 51.9581
rfemur -16.4045 -4.9514 20.8005
rtibia 82.8232
rfoot 1.8085 -0.423703
rtoes 32.6712
lfemur -0.201211 13.9729 -19.3343
ltibia 72.4572
lfoot 7.15096 7.51814
ltoes -32.6613
